<?xml version="1.0" encoding="iso-8859-1"?>
<!-- Uploaded to: SVG Repo, www.svgrepo.com, Generator: SVG Repo Mixer Tools -->
<svg version="1.1" id="Layer_1" xmlns="http://www.w3.org/2000/svg" xmlns:xlink="http://www.w3.org/1999/xlink" 
	 viewBox="0 0 390.271 390.271" xml:space="preserve">
<rect x="20.59" y="130.651" style="fill:#FFFFFF;" width="346.828" height="237.899"/>
<rect x="42.311" y="152.372" style="fill:#56ACE0;" width="303.515" height="194.586"/>
<g>
	<path style="fill:#194F82;" d="M379.378,108.994h-65.034V62.901c19.523-4.331,35.232-20.622,37.947-41.18h27.087
		c5.947,0,10.861-4.848,10.861-10.861S385.39,0,379.378,0H10.893C4.945,0,0.032,4.848,0.032,10.861s4.848,10.861,10.861,10.861
		H37.98c2.715,20.622,17.907,36.848,37.947,41.18v46.093H10.893c-5.947,0-10.861,4.848-10.861,10.861V379.41
		c0,5.947,4.848,10.861,10.861,10.861h368.485c5.947,0,10.861-4.848,10.861-10.861V119.855
		C390.238,113.842,385.39,108.994,379.378,108.994z M330.117,21.721c-3.232,11.895-13.576,20.622-26.57,20.622
		c-12.994,0-23.273-8.663-26.57-20.622C276.978,21.721,330.117,21.721,330.117,21.721z M135.531,21.721h119.208
		c2.715,20.622,17.907,36.848,37.947,41.18v46.093H97.584V62.901C117.624,58.57,132.816,42.343,135.531,21.721z M60.154,21.721
		h53.139c-3.232,11.895-13.576,20.622-26.57,20.622S63.451,33.681,60.154,21.721z M368.582,368.614H21.689V130.715h346.828v237.899
		H368.582z"/>
	<path style="fill:#194F82;" d="M48.259,175.644h162.069c5.947,0,10.861-4.848,10.861-10.861c0-5.947-4.848-10.861-10.861-10.861
		H48.259c-5.947,0-10.861,4.848-10.861,10.861C37.398,170.796,42.311,175.644,48.259,175.644z"/>
	<path style="fill:#194F82;" d="M258.554,175.644h19.523c5.947,0,10.861-4.848,10.861-10.861c0-5.947-4.848-10.861-10.861-10.861
		h-19.523c-5.947,0-10.861,4.848-10.861,10.861C247.693,170.796,252.606,175.644,258.554,175.644z"/>
	<path style="fill:#194F82;" d="M322.489,175.644h19.523c5.947,0,10.861-4.848,10.861-10.861c0-5.947-4.848-10.861-10.861-10.861
		h-19.523c-5.947,0-10.861,4.848-10.861,10.861C311.628,170.796,316.541,175.644,322.489,175.644z"/>
	<path style="fill:#194F82;" d="M342.012,323.103H179.943c-5.947,0-10.861,4.849-10.861,10.861c0,5.947,4.848,10.861,10.861,10.861
		h162.069c5.947,0,10.861-4.849,10.861-10.861C352.873,327.952,347.96,323.103,342.012,323.103z"/>
	<path style="fill:#194F82;" d="M131.717,323.103h-19.523c-5.947,0-10.861,4.849-10.861,10.861c0,5.947,4.848,10.861,10.861,10.861
		h19.523c5.947,0,10.861-4.849,10.861-10.861C142.578,327.952,137.665,323.103,131.717,323.103z"/>
	<path style="fill:#194F82;" d="M48.259,344.76h19.523c5.947,0,10.861-4.848,10.861-10.861c0-5.947-4.848-10.861-10.861-10.861
		H48.259c-5.947,0-10.861,4.848-10.861,10.861C37.398,339.846,42.311,344.76,48.259,344.76z"/>
	<path style="fill:#194F82;" d="M138.764,285.673c0-3.814-3.232-7.046-7.046-7.046H99.2V256.97h24.954
		c3.814,0,7.046-3.232,7.046-7.046s-3.232-7.046-7.046-7.046H99.2V221.22h32.517c3.814,0,7.046-3.232,7.046-7.046
		c0-3.814-3.232-7.046-7.046-7.046H92.154c-3.814,0-7.046,3.232-7.046,7.046v72.081c0,3.814,3.232,7.046,7.046,7.046h39.564
		C136.048,292.719,138.764,289.487,138.764,285.673z"/>
	<path style="fill:#194F82;" d="M200.566,289.487c2.198,3.232,6.529,3.814,9.762,1.616c3.232-2.198,3.814-6.529,1.616-9.762
		l-22.238-31.418l22.238-32c2.198-3.232,1.616-7.564-1.616-9.762l0,0c-3.232-2.198-7.564-1.616-9.762,1.616l-19.523,27.669
		l-18.941-27.669c-2.198-3.232-6.529-3.814-9.762-1.616c-3.232,2.198-3.814,6.529-1.616,9.762l22.238,32l-22.238,31.418
		c-2.198,3.232-1.616,7.564,1.616,9.762c3.232,2.198,7.564,1.616,9.762-1.616l18.941-27.087L200.566,289.487z"/>
	<path style="fill:#194F82;" d="M230.885,292.719c3.814,0,7.046-3.232,7.046-7.046v-72.081c0-3.814-3.232-7.046-7.046-7.046
		c-3.814,0-7.046,3.232-7.046,7.046v72.081C223.321,289.487,226.554,292.719,230.885,292.719z"/>
	<path style="fill:#194F82;" d="M247.693,213.592c0,3.814,3.232,7.046,7.046,7.046h14.61v64.517c0,3.814,3.232,7.046,7.046,7.046
		c3.814,0,7.046-3.232,7.046-7.046v-64.517h14.093c3.814,0,7.046-3.232,7.046-7.046s-3.232-7.046-7.046-7.046h-43.378
		C250.99,206.545,247.693,209.778,247.693,213.592z"/>
</g>
</svg>