<!DOCTYPE svg PUBLIC "-//W3C//DTD SVG 1.1//EN" "http://www.w3.org/Graphics/SVG/1.1/DTD/svg11.dtd">
<!-- Uploaded to: SVG Repo, www.svgrepo.com, Transformed by: SVG Repo Mixer Tools -->
<svg width="212px" height="212px" viewBox="-51.2 -51.2 614.40 614.40" enable-background="new 0 0 512 512" id="Layer_1" version="1.1" xml:space="preserve" xmlns="http://www.w3.org/2000/svg" xmlns:xlink="http://www.w3.org/1999/xlink" fill="#000000" stroke="#000000" stroke-width="0.00512" transform="matrix(1, 0, 0, 1, 0, 0)rotate(0)">
<g id="SVGRepo_bgCarrier" stroke-width="0" transform="translate(0,0), scale(1)">
<rect x="-51.2" y="-51.2" width="614.40" height="614.40" rx="307.2" fill="#7ed0ec" strokewidth="0"/>
</g>
<g id="SVGRepo_tracerCarrier" stroke-linecap="round" stroke-linejoin="round" stroke="#CCCCCC" stroke-width="2.048"/>
<g id="SVGRepo_iconCarrier"> <g> <g> <path d="M441.5,393.484h-371c-5.523,0-10-4.478-10-10v-46c0-5.522,4.477-10,10-10h125.25c5.523,0,10,4.478,10,10 v1.67c0,1.103,0.897,2,2,2h96.5c1.103,0,2-0.897,2-2v-1.67c0-5.522,4.478-10,10-10H441.5c5.522,0,10,4.478,10,10v46 C451.5,389.007,447.022,393.484,441.5,393.484z M80.5,373.484h351v-26H324.612c-3.29,8.013-11.179,13.67-20.362,13.67h-96.5 c-9.184,0-17.072-5.657-20.362-13.67H80.5V373.484z" fill="#444B54"/> </g> <g> <path d="M304.246,361.154h-96.5c-9.184,0-17.072-5.657-20.362-13.67h-85.128c-5.523,0-10-4.478-10-10V140.516 c0-12.131,9.869-22,22-22h283.48c12.131,0,22,9.869,22,22v196.969c0,5.522-4.478,10-10,10h-85.128 C321.318,355.497,313.43,361.154,304.246,361.154z M112.256,327.484h83.49c5.523,0,10,4.478,10,10v1.67c0,1.103,0.897,2,2,2h96.5 c1.103,0,2-0.897,2-2v-1.67c0-5.522,4.478-10,10-10h83.49V140.516c0-1.103-0.897-2-2-2h-283.48c-1.103,0-2,0.897-2,2V327.484z" fill="#444B54"/> </g> <g> <path d="M188.5,227.754h-40c-5.523,0-10-4.478-10-10v-31.662c0-5.522,4.477-10,10-10h40c5.523,0,10,4.478,10,10 v31.662C198.5,223.276,194.023,227.754,188.5,227.754z M158.5,207.754h20v-11.662h-20V207.754z" fill="#444B54"/> </g> <g> <path d="M188.333,305.623h-40c-5.523,0-10-4.478-10-10v-31.662c0-5.522,4.477-10,10-10h40c5.523,0,10,4.478,10,10 v31.662C198.333,301.146,193.856,305.623,188.333,305.623z M158.333,285.623h20v-11.662h-20V285.623z" fill="#444B54"/> </g> <g> <path d="M173.5,220.426C173.5,220.426,173.5,220.426,173.5,220.426c-2.653,0-5.196-1.054-7.072-2.93 l-13.666-13.668c-3.905-3.905-3.904-10.237,0.001-14.142c3.906-3.904,10.237-3.904,14.143,0.001l6.595,6.596l31.262-31.263 c3.905-3.904,10.237-3.904,14.143,0c3.905,3.905,3.905,10.237,0,14.143l-38.334,38.334 C178.695,219.372,176.152,220.426,173.5,220.426z" fill="#444B54"/> </g> <g> <path d="M372.5,201.258H229.167c-5.523,0-10-4.478-10-10s4.477-10,10-10H372.5c5.522,0,10,4.478,10,10 S378.022,201.258,372.5,201.258z" fill="#444B54"/> </g> <g> <path d="M300.833,231.424h-71.666c-5.523,0-10-4.478-10-10s4.477-10,10-10h71.666c5.522,0,10,4.478,10,10 S306.355,231.424,300.833,231.424z" fill="#444B54"/> </g> <g> <path d="M372.333,274.709H229c-5.523,0-10-4.478-10-10s4.477-10,10-10h143.333c5.522,0,10,4.478,10,10 S377.855,274.709,372.333,274.709z" fill="#444B54"/> </g> <g> <path d="M300.666,304.875H229c-5.523,0-10-4.478-10-10s4.477-10,10-10h71.666c5.522,0,10,4.478,10,10 S306.188,304.875,300.666,304.875z" fill="#444B54"/> </g> <g> <path d="M441.5,337.484v46h-371v-46h125.25v1.67c0,6.621,5.37,12,12,12h96.5c6.631,0,12-5.379,12-12v-1.67H441.5z" fill="#65A0D6"/> <path d="M441.5,393.484h-371c-5.523,0-10-4.478-10-10v-46c0-5.522,4.477-10,10-10h125.25c5.523,0,10,4.478,10,10 v1.67c0,1.103,0.897,2,2,2h96.5c1.103,0,2-0.897,2-2v-1.67c0-5.522,4.478-10,10-10H441.5c5.522,0,10,4.478,10,10v46 C451.5,389.007,447.022,393.484,441.5,393.484z M80.5,373.484h351v-26H324.612c-3.29,8.013-11.179,13.67-20.362,13.67h-96.5 c-9.184,0-17.072-5.657-20.362-13.67H80.5V373.484z" fill="#444B54"/> </g> <g> <path d="M409.736,140.516v196.969h-93.49v1.67c0,6.621-5.37,12-12,12h-96.5c-6.631,0-12-5.379-12-12v-1.67h-93.49 V140.516c0-6.631,5.37-12,12-12h283.48C404.365,128.516,409.736,133.885,409.736,140.516z" fill="#D9DCE1"/> <path d="M304.246,361.154h-96.5c-9.184,0-17.072-5.657-20.362-13.67h-85.128c-5.523,0-10-4.478-10-10V140.516 c0-12.131,9.869-22,22-22h283.48c12.131,0,22,9.869,22,22v196.969c0,5.522-4.478,10-10,10h-85.128 C321.318,355.497,313.43,361.154,304.246,361.154z M112.256,327.484h83.49c5.523,0,10,4.478,10,10v1.67c0,1.103,0.897,2,2,2h96.5 c1.103,0,2-0.897,2-2v-1.67c0-5.522,4.478-10,10-10h83.49V140.516c0-1.103-0.897-2-2-2h-283.48c-1.103,0-2,0.897-2,2V327.484z" fill="#444B54"/> </g> <g> <rect fill="#3C74BA" height="31.662" width="40" x="148.5" y="186.092"/> <path d="M188.5,227.754h-40c-5.523,0-10-4.478-10-10v-31.662c0-5.522,4.477-10,10-10h40c5.523,0,10,4.478,10,10 v31.662C198.5,223.276,194.023,227.754,188.5,227.754z M158.5,207.754h20v-11.662h-20V207.754z" fill="#444B54"/> </g> <g> <rect fill="#65A0D6" height="31.662" width="40" x="148.333" y="263.961"/> <path d="M188.333,305.623h-40c-5.523,0-10-4.478-10-10v-31.662c0-5.522,4.477-10,10-10h40c5.523,0,10,4.478,10,10 v31.662C198.333,301.146,193.856,305.623,188.333,305.623z M158.333,285.623h20v-11.662h-20V285.623z" fill="#444B54"/> </g> <g> <path d="M173.5,220.426C173.5,220.426,173.5,220.426,173.5,220.426c-2.653,0-5.196-1.054-7.072-2.93 l-13.666-13.668c-3.905-3.905-3.904-10.237,0.001-14.142c3.906-3.904,10.237-3.904,14.143,0.001l6.595,6.596l31.262-31.263 c3.905-3.904,10.237-3.904,14.143,0c3.905,3.905,3.905,10.237,0,14.143l-38.334,38.334 C178.695,219.372,176.152,220.426,173.5,220.426z" fill="#444B54"/> </g> <g> <path d="M372.5,201.258H229.167c-5.523,0-10-4.478-10-10s4.477-10,10-10H372.5c5.522,0,10,4.478,10,10 S378.022,201.258,372.5,201.258z" fill="#444B54"/> </g> <g> <path d="M300.833,231.424h-71.666c-5.523,0-10-4.478-10-10s4.477-10,10-10h71.666c5.522,0,10,4.478,10,10 S306.355,231.424,300.833,231.424z" fill="#444B54"/> </g> <g> <path d="M372.333,274.709H229c-5.523,0-10-4.478-10-10s4.477-10,10-10h143.333c5.522,0,10,4.478,10,10 S377.855,274.709,372.333,274.709z" fill="#444B54"/> </g> <g> <path d="M300.666,304.875H229c-5.523,0-10-4.478-10-10s4.477-10,10-10h71.666c5.522,0,10,4.478,10,10 S306.188,304.875,300.666,304.875z" fill="#444B54"/> </g> </g> </g>
</svg>