<svg width="85" height="19" viewBox="0 0 85 19" fill="none" xmlns="http://www.w3.org/2000/svg">
<path d="M8.82943 2.78117C9.13703 1.87747 10.4151 1.87748 10.7228 2.78117L11.7063 5.67063C11.8442 6.0759 12.2248 6.34841 12.6529 6.34841H15.7331C16.7131 6.34841 17.1083 7.61166 16.303 8.17013L13.8923 9.84206C13.5254 10.0965 13.3717 10.5633 13.5155 10.986L14.455 13.7461C14.7658 14.6593 13.7311 15.4398 12.9385 14.89L10.346 13.0921C10.0032 12.8543 9.54894 12.8543 9.2062 13.0921L6.61372 14.89C5.82105 15.4398 4.78633 14.6593 5.09716 13.7461L6.03665 10.986C6.18052 10.5633 6.02676 10.0965 5.65988 9.84206L3.24914 8.17013C2.4439 7.61166 2.83909 6.34841 3.81903 6.34841H6.89924C7.32734 6.34841 7.70796 6.0759 7.84591 5.67063L8.82943 2.78117Z" fill="#FFA858"/>
<path d="M25.0121 2.92714C25.3114 2.00582 26.6148 2.00582 26.9142 2.92714L27.8013 5.65742C27.9351 6.06944 28.3191 6.34841 28.7523 6.34841H31.6231C32.5918 6.34841 32.9946 7.58801 32.2109 8.15742L29.8883 9.84489C29.5379 10.0995 29.3912 10.5509 29.5251 10.9629L30.4122 13.6933C30.7115 14.6146 29.657 15.3807 28.8733 14.8113L26.5509 13.1239C26.2004 12.8692 25.7258 12.8692 25.3753 13.1239L23.0529 14.8113C22.2692 15.3807 21.2147 14.6146 21.514 13.6933L22.4012 10.9629C22.535 10.5509 22.3884 10.0995 22.0379 9.84489L19.7153 8.15741C18.9316 7.58801 19.3344 6.34841 20.3031 6.34841H23.1739C23.6071 6.34841 23.9911 6.06944 24.125 5.65742L25.0121 2.92714Z" fill="#FFA858"/>
<path d="M41.2035 2.78117C41.5111 1.87747 42.7892 1.87748 43.0968 2.78117L44.0803 5.67063C44.2182 6.0759 44.5989 6.34841 45.027 6.34841H48.1072C49.0871 6.34841 49.4823 7.61166 48.6771 8.17013L46.2663 9.84206C45.8994 10.0965 45.7457 10.5633 45.8896 10.986L46.829 13.7461C47.1399 14.6593 46.1051 15.4398 45.3125 14.89L42.72 13.0921C42.3773 12.8543 41.923 12.8543 41.5802 13.0921L38.9877 14.89C38.1951 15.4398 37.1604 14.6593 37.4712 13.7461L38.4107 10.986C38.5545 10.5633 38.4008 10.0965 38.0339 9.84206L35.6232 8.17013C34.8179 7.61166 35.2131 6.34841 36.1931 6.34841H39.2733C39.7014 6.34841 40.082 6.0759 40.2199 5.67063L41.2035 2.78117Z" fill="#FFA858"/>
<path d="M57.3861 2.92714C57.6854 2.00582 58.9888 2.00582 59.2882 2.92714L60.1753 5.65742C60.3092 6.06944 60.6931 6.34841 61.1263 6.34841H63.9971C64.9658 6.34841 65.3686 7.58801 64.5849 8.15742L62.2624 9.84489C61.9119 10.0995 61.7652 10.5509 61.8991 10.9629L62.7862 13.6933C63.0856 14.6146 62.0311 15.3807 61.2474 14.8113L58.9249 13.1239C58.5744 12.8692 58.0998 12.8692 57.7493 13.1239L55.4269 14.8113C54.6432 15.3807 53.5887 14.6146 53.8881 13.6933L54.7752 10.9629C54.909 10.5509 54.7624 10.0995 54.4119 9.84489L52.0894 8.15741C51.3057 7.58801 51.7085 6.34841 52.6772 6.34841H55.5479C55.9812 6.34841 56.3651 6.06944 56.499 5.65742L57.3861 2.92714Z" fill="#FFA858"/>
<path d="M73.5775 2.78117C73.8851 1.87747 75.1632 1.87748 75.4708 2.78117L76.4543 5.67063C76.5923 6.0759 76.9729 6.34841 77.401 6.34841H80.4812C81.4611 6.34841 81.8563 7.61166 81.0511 8.17013L78.6403 9.84206C78.2735 10.0965 78.1197 10.5633 78.2636 10.986L79.2031 13.7461C79.5139 14.6593 78.4792 15.4398 77.6865 14.89L75.094 13.0921C74.7513 12.8543 74.297 12.8543 73.9542 13.0921L71.3618 14.89C70.5691 15.4398 69.5344 14.6593 69.8452 13.7461L70.7847 10.986C70.9286 10.5633 70.7748 10.0965 70.4079 9.84206L67.9972 8.17013C67.1919 7.61166 67.5871 6.34841 68.5671 6.34841H71.6473C72.0754 6.34841 72.456 6.0759 72.594 5.67063L73.5775 2.78117Z" fill="#FFA858"/>
</svg>
